:SAMPLES-PER-SECOND 30
:FULLY-SPECIFIED
:DEGREES
1073
root  -13.0264 39.2043 5.11163 -120.24 -87.7687 111.07
RightUpLeg  -11.5654 -12.4645 -12.5944
RightLeg  64.3093 1.69322 3.24621
RightFoot  -4.2439 -0.619078 9.45127
RightToes  -5.8209e-011 0 -3.6325e-017
Spine  9.52705 1.25091 0.170085
Spine1  10.2567 2.51976 -7.63914
HEad  -18.2678 -1.15644 -3.19185
LeftShoulder1  0.402957 2.32203 -27.9516
LeftArm  -8.99753 0.778456 -29.8321
LeftForeArm  39.3723 -77.2747 -59.4188
LeftHand  -0.129011 -0.417288 2.65269
RightShoulder  -0.0188051 -3.53491 25.9665
RightArm  -9.776 -1.36966 33.7725
RightForeArm  59.7277 78.7119 86.2219
RightHand  -0.0561373 5.38804 -0.90186
LeftUpLeg  -2.66607 4.29427 -5.8321
LeftLeg  19.0646 3.94543 1.73308
LeftFoot  -7.3996 -0.203903 7.20472
LeftToes  -8.31281e-010 4.41007e-011 3.74621e-011
1074
root  -14.1131 39.3496 5.05918 -130.346 -88.2111 121.075
RightUpLeg  -14.5628 -11.8991 -11.4016
RightLeg  58.823 2.22723 3.53288
RightFoot  -4.40626 -0.538495 8.37805
RightToes  -5.8209e-011 0 -3.6325e-017
Spine  9.41402 0.83805 -0.719334
Spine1  10.1235 1.57531 -5.8978
HEad  -17.4603 -0.200367 -2.7615
LeftShoulder1  0.397847 2.34669 -28.2435
LeftArm  -8.14845 -0.277322 -30.4355
LeftForeArm  38.8708 -77.1485 -58.1901
LeftHand  -0.131373 0.103624 2.90385
RightShoulder  0.00877636 -3.44934 25.4509
RightArm  -11.2513 -2.62985 31.7302
RightForeArm  69.7821 78.7088 95.7282
RightHand  0.0516525 4.19453 0.339974
LeftUpLeg  -0.0108712 5.18369 -4.793
LeftLeg  17.8224 3.04881 1.29012
LeftFoot  -8.75599 -0.103527 6.92994
LeftToes  -8.31281e-010 4.41007e-011 3.74621e-011
1075
root  -15.2264 39.4105 4.97918 -139.622 -88.0543 130.369
RightUpLeg  -16.5956 -11.0532 -10.5859
RightLeg  50.8245 2.60905 3.06678
RightFoot  -4.90995 -0.502299 8.33281
RightToes  -5.8209e-011 0 -3.6325e-017
Spine  9.61745 0.464727 -1.56156
Spine1  9.4224 0.931167 -4.98669
HEad  -17.3412 0.805575 -2.21552
LeftShoulder1  0.403558 2.32089 -27.9754
LeftArm  -7.79628 -0.652811 -31.1085
LeftForeArm  40.2288 -77.2831 -59.0062
LeftHand  -0.117174 -0.211132 2.48107
RightShoulder  -0.0224047 -3.54773 25.3362
RightArm  -10.7409 -3.62861 29.6997
RightForeArm  73.9155 78.4272 102.104
RightHand  0.0713605 3.87409 0.631122
LeftUpLeg  2.46864 6.19273 -4.08898
LeftLeg  16.7594 2.44687 0.754736
LeftFoot  -10.1847 -0.00836831 6.90287
LeftToes  -8.31281e-010 4.41007e-011 3.74621e-011
1076
root  -16.3789 39.3902 4.89662 -144.936 -87.1973 135.745
RightUpLeg  -17.4502 -9.80832 -10.3036
RightLeg  40.3191 2.93876 2.43063
RightFoot  -5.31886 -0.491685 8.63569
RightToes  -5.8209e-011 0 -3.6325e-017
Spine  9.02871 0.335619 -2.1339
Spine1  9.90153 0.845669 -4.83407
HEad  -17.9557 1.55699 -1.48155
LeftShoulder1  0.438795 2.21344 -27.859
LeftArm  -7.9114 -1.3925 -31.8578
LeftForeArm  40.8375 -77.3989 -60.1076
LeftHand  -0.121195 0.391494 2.78995
RightShoulder  -0.00648732 -3.4975 25.2603
RightArm  -10.0385 -5.126 28.2987
RightForeArm  73.2924 77.9756 106.723
RightHand  0.00514338 4.18138 -0.214657
LeftUpLeg  5.02988 6.83567 -3.96652
LeftLeg  15.5732 2.56542 0.309335
LeftFoot  -11.582 0.0842445 6.8484
LeftToes  -8.31281e-010 4.41007e-011 3.74621e-011
1077
root  -17.5513 39.3338 4.81771 -145.041 -86.5137 135.956
RightUpLeg  -16.8954 -8.93784 -9.998
RightLeg  27.3769 2.52312 1.20352
RightFoot  -5.01751 -0.529749 8.95826
RightToes  -5.8209e-011 0 -3.6325e-017
Spine  8.36812 0.140114 -2.4342
Spine1  10.4932 0.70739 -4.48084
HEad  -18.3262 1.49203 -1.29897
LeftShoulder1  0.436211 2.23128 -28.141
LeftArm  -7.83785 -2.1931 -32.2446
LeftForeArm  42.1649 -77.5607 -61.5045
LeftHand  -0.0950016 0.478034 2.2053
RightShoulder  -0.0279913 -3.56574 25.2462
RightArm  -10.3128 -7.15153 28.0495
RightForeArm  78.8964 77.4256 113.425
RightHand  -0.0563098 4.47571 -0.945824
LeftUpLeg  7.48282 7.30493 -3.90416
LeftLeg  14.5783 2.55109 -0.134487
LeftFoot  -13.0227 0.175551 6.6392
LeftToes  -8.31281e-010 4.41007e-011 3.74621e-011
1078
root  -18.7481 39.2342 4.76886 -136.249 -85.8767 127.651
RightUpLeg  -15.7419 -9.54379 -10.0564
RightLeg  13.446 2.47218 0.500549
RightFoot  -4.73911 -0.527386 8.54088
RightToes  -5.8209e-011 0 -3.6325e-017
Spine  7.36751 -0.324827 -2.36109
Spine1  11.0257 0.493324 -4.67401
HEad  -18.7283 1.83007 -1.81546
LeftShoulder1  0.4248 2.26728 -28.2162
LeftArm  -7.04922 -2.67438 -32.2937
LeftForeArm  43.8732 -77.7197 -62.739
LeftHand  -0.0654077 0.582062 1.52703
RightShoulder  -0.0484112 -3.63038 25.2902
RightArm  -10.6201 -9.78732 28.7013
RightForeArm  83.0333 76.7864 118.858
RightHand  -0.142823 4.59115 -1.95337
LeftUpLeg  9.59219 7.22164 -4.53893
LeftLeg  13.3728 2.64788 -0.426085
LeftFoot  -14.3997 0.249432 6.08601
LeftToes  -8.31281e-010 4.41007e-011 3.74621e-011
